<svg width="588.473" height="150.468" viewBox="0 0 588.473 150.468" xmlns="http://www.w3.org/2000/svg" xmlns:xlink="http://www.w3.org/1999/xlink" id="圖層_1" overflow="hidden"><g><path d="M75.188 75.224 5.873 104.294C2.49 96.214 0.482 87.427 0.077 78.562 0.025 77.45 0 76.335 0 75.224 0 33.807 33.771 0.036 75.188 0.036 116.588 0.036 150.36 33.807 150.36 75.224 150.36 80.804 149.481 86.97 148.295 92.257L75.188 75.224Z" fill="#4981BF"/><path d="M86.886 64.495 113.644 99.192 148.325 91.87C140.679 125.874 109.806 150.505 74.848 150.505 41.925 150.505 12.238 128.509 2.836 97.157L63.781 98.837 86.886 64.495Z" fill="#9AC352"/><path d="M0.074 78.989 25.694 78.862C35.605 64.017 45.501 49.159 55.396 34.316 57.107 32.513 58.432 32.296 59.974 32.836L67.773 41.129 36.838 84.442 0.288 84.34 0.074 78.989Z" fill="#FFFFFF"/><path d="M1.973 93.797 51.559 93.797 88.443 39 126.484 93.797 147.354 93.797 146.244 96.771 121.998 96.771 88.458 48.311 54.625 97.528 2.897 97.157Z" fill="#9AC352"/><path d="M3.606 99.504 2.836 97.157 54.502 96.911 88.551 48.173 122.214 96.819 147.076 96.819 144.965 102.506 110.839 102.506 87.194 69.088 66.417 101.765 4.356 101.788Z" fill="#FFFFFF"/><path d="M1.973 93.797 1.466 91.084 1.145 87.98 39.937 88.155 84.467 21.322C85.561 20.412 86.209 19.78 88.321 19.95 89.384 20.135 90.34 20.336 91.897 21.939L138.138 88.772 149.174 88.772 147.986 93.797 126.547 93.72 88.181 39.634 51.82 94.09 1.973 93.797Z" fill="#FFFFFF"/></g><g><path d="M176.104 38.121C177.736 38.985 178.6 39.657 178.6 40.137 178.6 40.617 178.168 40.857 177.304 40.953 176.296 40.953 175.72 41.145 175.575 41.433 174.519 42.969 173.415 44.313 172.311 45.514L172.359 45.514C173.367 45.802 173.895 46.09 173.895 46.282 173.895 46.858 173.559 47.29 172.983 47.578 172.599 47.818 172.407 48.203 172.407 48.73L172.407 68.412C172.407 68.988 171.639 69.468 170.103 69.804 169.431 69.9 168.951 69.948 168.663 69.948 167.511 69.948 166.935 69.42 166.935 68.412 167.175 65.004 167.319 61.596 167.319 58.139L167.319 50.075C165.639 51.275 163.623 52.475 161.319 53.627L160.935 52.667C163.335 50.363 165.496 47.818 167.368 45.034 169.48 41.77 170.968 38.698 171.832 35.817 173.463 36.729 174.855 37.497 176.104 38.121ZM173.799 28.567C175.239 29.335 175.959 29.959 175.959 30.343 175.959 30.775 175.575 31.015 174.855 31.063 173.943 31.063 173.415 31.207 173.319 31.495 172.071 33.319 170.727 34.903 169.335 36.343 167.703 38.072 165.159 39.847 161.702 41.624L161.318 40.856C163.238 38.888 164.918 36.679 166.406 34.279 168.086 31.543 169.286 28.903 169.958 26.406 171.399 27.271 172.647 27.991 173.799 28.567ZM184.6 41.816 195.449 41.816C195.593 41.768 196.217 41.048 197.273 39.704 198.569 38.12 199.337 37.304 199.577 37.304 200.249 37.304 201.257 38.072 202.697 39.56 204.137 41.096 204.857 42.057 204.857 42.344 204.857 42.872 204.521 43.112 203.897 43.112L197.128 43.112 197.128 63.178C197.128 65.962 196.216 67.786 194.44 68.602 192.712 69.466 191.464 69.946 190.6 69.946 190.024 69.946 189.592 69.322 189.256 68.122 188.728 66.394 186.615 64.954 182.919 63.754L183.063 62.794C185.799 63.178 188.104 63.37 190.023 63.37 190.983 63.37 191.511 62.89 191.511 61.882L191.511 43.112 184.6 43.112C181.816 43.112 179.896 43.208 178.791 43.304L178.023 41.431C179.512 41.72 181.72 41.816 184.6 41.816ZM186.665 31.111 193.001 31.111C193.097 31.063 193.673 30.391 194.681 29.095 195.833 27.559 196.553 26.791 196.793 26.791 197.417 26.791 198.425 27.559 199.769 28.999 201.113 30.439 201.833 31.352 201.833 31.687 201.833 32.167 201.497 32.407 200.921 32.407L186.664 32.407C183.879 32.407 181.959 32.503 180.855 32.599L180.087 30.727C181.576 31.015 183.784 31.111 186.665 31.111Z" fill="#040000"/><path d="M216.279 30.919 225.256 30.919C225.352 30.871 225.88 30.247 226.84 28.999 227.944 27.559 228.616 26.791 228.856 26.791 229.432 26.791 230.392 27.511 231.736 28.903 233.032 30.343 233.704 31.207 233.704 31.495 233.704 31.974 233.368 32.215 232.792 32.215L225.832 32.215 225.832 44.216 226.408 44.216C226.408 44.216 226.744 43.88 227.368 43.208 228.232 42.296 228.76 41.816 229 41.816 229.24 41.816 230.008 42.392 231.256 43.496 231.304 43.544 231.352 43.592 231.352 43.592 231.928 41.863 232.456 40.232 232.84 38.696 233.704 35.143 234.424 30.967 235 26.071 236.68 26.551 238.312 26.983 239.896 27.415 241.384 27.895 242.152 28.375 242.152 28.855 242.152 29.383 241.72 29.719 240.904 29.815 240.088 30.007 239.608 30.151 239.512 30.343 238.84 32.84 238.168 35.095 237.4 37.112L243.257 37.112C243.305 37.112 243.833 36.536 244.841 35.384 246.137 33.8 247.001 32.984 247.385 32.984 247.769 32.984 248.969 33.896 250.889 35.625 252.041 36.729 252.665 37.401 252.665 37.689 252.665 38.169 252.329 38.409 251.705 38.409L249.305 38.409C248.441 42.777 247.241 46.953 245.704 50.89 244.648 53.578 243.544 55.834 242.392 57.659 243.256 58.619 244.168 59.435 245.176 60.203 247.528 62.027 250.217 63.515 253.193 64.667L252.857 65.435C251.753 65.531 250.889 66.395 250.265 68.027 249.689 69.035 249.305 69.563 249.065 69.563 248.009 69.563 246.185 68.314 243.641 65.866 241.961 64.378 240.569 62.842 239.465 61.21 238.121 62.602 236.681 63.85 235.048 65.002 231.976 67.114 228.568 68.746 224.919 69.946L224.535 69.178C227.847 67.162 230.631 65.194 232.888 63.13 234.52 61.594 236.056 59.817 237.4 57.754 236.92 56.842 236.536 55.93 236.248 54.97 235.192 51.513 234.52 47.769 234.232 43.785 232.984 45.945 231.592 48.105 229.96 50.218L229.192 49.498C229.768 48.154 230.248 46.81 230.68 45.561L225.831 45.561 225.831 59.098C228.231 58.714 230.583 58.234 232.791 57.754L232.935 58.282C227.079 61.739 220.838 64.235 214.31 65.771 213.59 65.819 213.254 66.011 213.254 66.347 213.158 66.539 213.11 66.779 213.062 67.067 212.966 67.451 212.774 67.691 212.534 67.691 211.862 67.691 211.094 66.539 210.181 64.235 209.941 63.611 209.509 62.555 208.933 61.115 210.085 61.019 211.189 60.923 212.341 60.827L212.341 46.28C212.341 43.784 212.197 41.575 211.957 39.559 213.205 39.704 214.885 39.943 216.901 40.231 218.437 40.519 219.253 40.759 219.253 41.047 219.253 41.527 218.821 41.911 217.957 42.199 217.285 42.391 216.997 42.775 216.997 43.303L216.997 60.345C218.245 60.201 219.541 60.057 220.789 59.865L220.789 32.215 216.277 32.215C213.493 32.215 211.572 32.311 210.468 32.407L209.7 30.534C211.19 30.823 213.398 30.919 216.279 30.919ZM236.488 46.616C237.208 49.4 238.217 51.848 239.512 54.009 240.136 52.665 240.76 50.985 241.432 49.017 242.536 45.849 243.4 42.296 244.072 38.408L236.871 38.408C236.439 39.464 236.007 40.424 235.575 41.288 235.479 41.432 235.431 41.528 235.383 41.624 235.577 43.064 235.96 44.745 236.488 46.616Z" fill="#040000"/><path d="M273.88 28.183C275.08 29.239 275.704 29.959 275.704 30.343 275.704 30.727 275.224 31.015 274.359 31.207 273.303 31.495 272.679 31.783 272.535 32.071 270.615 36.296 268.743 39.656 266.919 42.2 269.031 44.024 270.567 45.704 271.527 47.145 272.103 48.105 272.631 49.209 273.015 50.457 273.399 51.657 273.639 52.905 273.639 54.202 273.639 55.93 273.303 57.178 272.679 57.898 272.007 58.954 271.239 59.674 270.422 60.154 269.559 60.682 268.886 60.922 268.406 60.922 268.022 60.922 267.686 60.394 267.494 59.338 267.158 58.282 266.006 57.274 264.086 56.41L264.086 68.795C264.086 69.371 263.27 69.851 261.686 70.187 260.966 70.235 260.438 70.283 260.15 70.283 259.142 70.283 258.662 69.755 258.662 68.795 258.758 67.066 258.854 65.435 258.854 63.754L258.854 33.559C258.854 31.159 258.71 28.855 258.47 26.599 260.678 27.223 262.934 28.039 265.239 29.047L267.447 29.047C268.119 28.231 268.743 27.559 269.271 26.983 269.798 26.503 270.279 26.215 270.663 26.215 271.144 26.214 272.247 26.887 273.88 28.183ZM264.087 55.065C265.239 55.257 266.151 55.305 266.919 55.305 267.591 55.305 268.119 55.161 268.455 54.873 268.743 54.393 268.935 53.577 268.935 52.473 268.935 50.361 268.647 48.681 268.166 47.337 267.494 45.657 266.534 43.929 265.19 42.2 266.342 38.744 267.302 34.76 268.023 30.343L264.086 30.343 264.087 55.065 264.087 55.065ZM279.448 48.921 292.602 48.921C292.698 48.873 293.226 48.249 294.138 47.097 295.289 45.705 295.961 44.985 296.154 44.985 296.73 44.985 297.642 45.705 298.89 47.049 300.186 48.393 300.859 49.209 300.859 49.497 300.859 49.977 300.522 50.217 299.898 50.217L291.642 50.217 291.642 62.986C291.642 63.898 291.833 64.426 292.314 64.522 292.698 64.618 293.37 64.666 294.282 64.666 295.003 64.666 295.53 64.426 295.915 63.946 296.3 63.082 296.876 61.018 297.644 57.754L298.604 57.946 298.796 61.114C298.796 62.266 299.179 63.226 299.947 63.994 300.62 64.714 301.003 65.386 301.003 66.01 301.003 66.874 300.62 67.498 299.947 67.883 298.796 68.603 296.876 68.987 294.282 68.987L291.546 68.987C290.538 68.987 289.626 68.843 288.857 68.603 287.225 68.267 286.409 67.067 286.409 65.051L286.409 50.217 283.529 50.217C283.241 53.769 282.761 56.506 281.993 58.378 281.321 60.106 280.457 61.594 279.497 62.89 278.441 64.186 277.049 65.29 275.417 66.25 273.257 67.546 270.856 68.65 268.216 69.563L267.64 68.411C269.033 67.739 270.424 66.779 271.769 65.579 273.113 64.427 274.217 63.035 275.177 61.451 276.041 60.011 276.713 58.474 277.097 56.938 277.625 55.066 277.913 52.81 277.961 50.218 275.993 50.266 274.553 50.314 273.641 50.41L272.921 48.538C274.407 48.825 276.567 48.921 279.448 48.921ZM288.569 27.031C289.721 27.127 290.345 27.415 290.345 27.943 290.345 28.135 289.961 28.423 289.241 28.759 288.472 29.095 288.088 29.527 288.088 30.007L288.088 33.175 292.937 33.175C293.561 32.551 294.089 32.023 294.521 31.639 295.145 30.919 295.625 30.535 295.961 30.535 296.393 30.535 297.447 31.255 299.129 32.647 300.617 33.895 301.385 34.759 301.385 35.239 301.385 35.623 301 35.911 300.281 36.007 299.416 36.007 298.887 36.103 298.793 36.199 297.399 37.159 295.769 38.119 293.897 39.079 293.945 39.175 293.993 39.175 293.993 39.175 295.145 40.423 295.769 41.143 295.769 41.431 295.769 41.959 295.481 42.199 295 42.199L281.703 42.199C278.967 42.199 277.047 42.247 275.894 42.343L275.126 40.471C276.662 40.759 278.822 40.855 281.702 40.855L288.087 40.855C288.183 40.855 288.663 40.279 289.576 39.175 290.632 37.927 291.256 37.303 291.448 37.303 291.688 37.303 292.024 37.447 292.408 37.687 292.888 36.631 293.32 35.575 293.704 34.471L277.478 34.471C277.382 35.671 277.287 36.535 277.19 37.111 276.854 38.359 276.327 39.223 275.606 39.703 275.127 39.991 274.694 40.135 274.214 40.135 273.254 40.135 272.485 39.847 271.861 39.271 271.285 38.839 270.997 38.167 270.997 37.303 270.997 36.919 271.477 36.391 272.533 35.767 273.59 35.191 274.454 34.518 275.126 33.75 275.702 33.078 276.23 31.974 276.662 30.534L277.574 30.726C277.574 31.686 277.526 32.502 277.526 33.174L283 33.174 283 30.197C283 28.901 282.856 27.557 282.664 26.213 284.681 26.407 286.648 26.695 288.569 27.031Z" fill="#040000"/><path d="M311.319 30.199 313.191 30.199C313.288 30.151 313.815 29.527 314.776 28.327 315.88 26.935 316.551 26.215 316.792 26.215 317.368 26.215 318.28 26.935 319.528 28.279 320.298 29.143 320.872 29.767 321.161 30.199 321.161 28.855 321.064 27.511 320.921 26.215 322.841 26.743 324.81 27.415 326.731 28.279L340.604 28.279C341.083 27.703 341.515 27.223 341.9 26.839 342.285 26.455 342.621 26.215 343.004 26.215 343.532 26.215 344.444 26.695 345.692 27.655 347.132 28.663 347.9 29.383 347.9 29.815 347.9 30.103 347.612 30.439 347.086 30.775 346.557 31.063 346.27 31.399 346.221 31.687L346.221 37.687C346.221 38.119 345.742 38.455 344.877 38.647 345.453 39.031 346.27 39.703 347.325 40.663 348.334 41.575 348.861 42.151 348.861 42.343 348.861 42.871 348.573 43.111 348.091 43.111L321.257 43.111C321.354 43.303 321.448 43.447 321.448 43.495 321.448 43.974 321.21 44.215 320.728 44.215L315.254 44.215 315.254 54.392C317.366 53.913 319.334 53.336 321.256 52.664L321.446 53.24C317.75 56.792 313.862 59.337 309.733 60.873 309.254 60.969 309.061 61.209 309.061 61.497 308.964 61.689 308.917 61.881 308.917 62.169 308.771 62.601 308.579 62.793 308.341 62.793 307.667 62.793 306.901 61.641 305.987 59.337 305.747 58.713 305.363 57.657 304.788 56.217 306.611 56.025 308.341 55.785 310.019 55.497L310.019 44.216C308.243 44.264 306.947 44.312 306.082 44.408L305.313 42.536C306.513 42.728 308.097 42.872 310.017 42.92L310.017 31.496C307.953 31.544 306.464 31.592 305.503 31.688L304.784 29.816C306.279 30.104 308.439 30.199 311.319 30.199ZM327.113 46.28 338.538 46.28C339.066 45.656 339.546 45.128 339.931 44.696 340.316 44.312 340.747 44.072 341.13 44.072 341.659 44.072 342.618 44.6 344.011 45.56 345.596 46.616 346.411 47.384 346.411 47.816 346.411 48.152 346.124 48.488 345.595 48.872 345.068 49.208 344.78 49.544 344.732 49.88L344.732 53.433C344.732 53.913 344.06 54.297 342.764 54.489 343.915 55.257 345.02 55.929 346.028 56.553 347.132 57.369 347.709 57.945 347.709 58.281 347.709 58.665 347.518 58.857 347.133 58.857L344.734 58.665C343.534 59.433 341.95 60.153 339.982 60.873 340.461 61.257 340.942 61.545 341.42 61.785 343.726 63.177 346.316 64.281 349.197 65.049L349.006 66.009C347.566 66.537 346.606 67.258 346.222 68.17 345.694 69.322 345.262 69.946 344.926 69.946 344.492 69.946 343.726 69.514 342.572 68.698 341.276 67.882 339.931 66.73 338.492 65.241 337.34 64.137 336.332 62.649 335.42 60.777 334.651 59.337 333.981 57.369 333.451 54.873 332.347 55.737 331.244 56.457 330.092 57.129L330.092 63.177C331.965 62.889 333.787 62.601 335.517 62.217L335.901 62.985C332.349 65.625 328.653 67.545 324.715 68.697 324.283 68.745 324.092 68.889 324.092 69.177 323.996 69.273 323.947 69.465 323.947 69.753 323.85 70.089 323.707 70.281 323.514 70.281 322.89 70.281 322.169 69.225 321.306 67.161 321.066 66.585 320.682 65.625 320.154 64.281 321.883 64.185 323.562 64.041 325.194 63.849L325.194 59.625C321.594 61.161 317.994 62.265 314.345 62.985L314.154 62.409C317.177 61.353 320.01 59.961 322.602 58.281 325.05 56.937 327.115 55.353 328.794 53.625L327.018 53.625C326.828 54.153 326.106 54.537 324.81 54.777 324.138 54.873 323.61 54.921 323.322 54.921 322.314 54.921 321.836 54.489 321.836 53.625 321.932 52.761 322.026 51.753 322.026 50.601L322.026 48.344C322.026 47.288 321.882 45.944 321.642 44.408 323.417 44.888 325.241 45.512 327.113 46.28ZM340.938 41.816C340.986 41.816 341.417 41.336 342.234 40.376 342.762 39.751 343.194 39.272 343.579 38.888 343.146 38.984 342.858 38.984 342.667 38.984 341.995 38.984 341.563 38.792 341.419 38.408L326.153 38.408C326.153 39.032 325.432 39.512 323.993 39.8 323.32 39.896 322.889 39.944 322.6 39.944 321.543 39.944 321.064 39.464 321.064 38.408 321.161 36.968 321.256 35.48 321.256 33.944L321.256 32.6C321.256 32.168 321.207 31.736 321.207 31.304 321.062 31.448 320.822 31.496 320.535 31.496L315.254 31.496 315.254 42.584C315.446 42.344 315.734 42.008 316.119 41.528 316.982 40.472 317.512 39.944 317.703 39.944 318.182 39.944 318.902 40.472 319.91 41.528 320.008 41.624 320.056 41.72 320.15 41.816L340.938 41.816ZM328.409 37.111 328.409 29.623 326.153 29.623 326.153 37.111 328.409 37.111ZM339.45 52.281 339.45 47.625 327.065 47.625 327.065 52.281 339.45 52.281ZM334.937 37.111 334.937 29.623 332.538 29.623 332.538 37.111 334.937 37.111ZM336.857 57.754C337.433 58.57 338.057 59.29 338.778 59.866 339.163 59.386 339.592 58.81 340.026 58.138 340.84 57.082 341.514 55.882 342.09 54.634 341.514 54.73 341.08 54.73 340.793 54.73 339.928 54.73 339.496 54.394 339.496 53.626L335.033 53.626C334.887 53.77 334.744 53.866 334.647 53.914 335.225 55.305 335.946 56.602 336.857 57.754ZM341.323 37.111 341.323 29.623 339.066 29.623 339.066 37.111 341.323 37.111Z" fill="#040000"/><path d="M357.02 39.752 357.02 33.368C357.02 30.776 356.876 28.472 356.636 26.408 357.932 26.6 359.66 26.84 361.821 27.224 363.454 27.512 364.317 27.8 364.317 28.136 364.317 28.568 363.838 28.952 362.878 29.288 362.206 29.48 361.87 29.864 361.87 30.344L361.87 38.937C362.061 38.649 362.303 38.361 362.542 38.073 363.502 36.824 364.127 36.2 364.317 36.2 364.797 36.2 365.614 36.824 366.765 38.024 367.438 38.792 367.917 39.368 368.205 39.752L373.869 39.752C373.58 39.416 373.39 38.744 373.244 37.784 373.004 36.248 372.332 34.616 371.277 32.983 369.548 33.031 368.299 33.079 367.533 33.175L366.763 31.303C368.251 31.591 370.459 31.687 373.341 31.687L377.995 31.687 377.995 30.007C377.995 28.807 377.85 27.559 377.61 26.215 379.532 26.407 381.356 26.647 383.083 26.935 384.188 27.031 384.765 27.271 384.765 27.751 384.765 27.943 384.429 28.183 383.757 28.471 383.036 28.807 382.7 29.191 382.7 29.623L382.7 31.687 387.212 31.687C387.31 31.639 387.788 31.063 388.651 30.007 389.708 28.759 390.381 28.135 390.573 28.135 391.1 28.135 391.966 28.759 393.116 29.959 394.268 31.207 394.893 31.975 394.893 32.215 394.893 32.743 394.604 32.983 394.123 32.983L385.289 32.983C385.914 33.271 386.49 33.511 387.066 33.751 388.65 34.327 389.466 34.855 389.466 35.431 389.466 35.767 389.081 36.007 388.314 36.151 387.544 36.247 387.113 36.439 387.017 36.727 386.058 37.831 384.81 38.839 383.322 39.751L387.017 39.751C387.017 39.751 387.544 39.223 388.505 38.167 389.753 36.727 390.569 36.007 390.952 36.007 391.337 36.007 392.393 36.823 394.169 38.407 395.226 39.415 395.802 40.039 395.802 40.279 395.802 40.807 395.466 41.047 394.89 41.047L361.863 41.047 361.863 53.624C363.833 53.192 365.705 52.712 367.529 52.136L367.673 52.664C364.217 56.12 360.522 58.616 356.68 60.152 356.248 60.248 356.056 60.44 356.056 60.728 355.96 60.92 355.912 61.16 355.866 61.4 355.768 61.88 355.577 62.072 355.338 62.072 354.618 62.072 353.802 60.92 352.89 58.52 352.603 57.848 352.17 56.791 351.546 55.304 353.466 55.112 355.29 54.824 357.019 54.536L357.019 41.048C354.666 41.048 352.986 41.144 351.93 41.24L351.209 39.368C352.556 39.608 354.524 39.752 357.02 39.752ZM373.438 44.216 385.872 44.216C386.495 43.544 387.12 42.92 387.696 42.343 388.128 41.863 388.512 41.623 388.895 41.623 389.231 41.623 390.096 42.055 391.44 42.823 392.975 43.879 393.745 44.599 393.745 44.984 393.745 45.416 393.409 45.848 392.784 46.28 392.305 46.664 392.063 47.144 392.063 47.624L392.063 51.176C392.063 52.52 392.112 54.344 392.254 56.6 392.254 57.224 391.486 57.704 389.998 57.992 389.326 58.088 388.799 58.136 388.512 58.136 387.647 58.136 387.215 57.704 387.215 56.792L387.215 56.408 386.063 56.408 386.063 62.6C386.063 63.656 386.303 64.184 386.784 64.28 387.167 64.424 387.841 64.472 388.753 64.472 389.521 64.472 390.146 64.232 390.528 63.752 390.96 62.888 391.585 60.824 392.448 57.559L393.553 57.751 393.744 60.727C393.744 61.927 394.08 62.935 394.752 63.703 395.328 64.471 395.615 65.143 395.615 65.815 395.615 66.775 395.232 67.399 394.56 67.783 393.359 68.551 391.439 68.983 388.749 68.983L386.061 68.983C385.053 68.983 384.19 68.839 383.42 68.599 381.787 68.215 381.02 66.967 381.02 64.855L381.02 56.406 379.436 56.406C379.053 58.902 378.428 60.774 377.565 62.071 376.749 63.319 375.741 64.423 374.493 65.383 373.245 66.343 371.565 67.159 369.549 67.88 366.956 68.84 364.028 69.608 360.765 70.28L360.189 69.176C362.013 68.648 363.837 67.976 365.613 67.112 367.389 66.248 368.926 65.336 370.175 64.184 371.375 63.128 372.238 62.024 372.768 60.871 373.393 59.623 373.729 58.135 373.825 56.407L373.346 56.407C373.346 56.983 372.576 57.367 371.136 57.607 370.512 57.703 370.032 57.751 369.744 57.751 368.734 57.751 368.256 57.319 368.256 56.407 368.352 55.591 368.447 54.679 368.447 53.623L368.447 46.134C368.447 45.078 368.351 43.83 368.256 42.342 369.933 42.824 371.661 43.448 373.438 44.216ZM387.215 49.498 387.215 45.561 373.342 45.561 373.342 49.498 387.215 49.498ZM387.215 55.113 387.215 50.793 373.342 50.793 373.342 55.113 387.215 55.113ZM381.454 39.752C382.27 37.688 382.847 35.432 383.184 32.983L373.391 32.983C374.829 33.559 375.887 34.087 376.51 34.567 377.614 35.431 378.19 36.151 378.19 36.727 378.19 37.831 377.95 38.695 377.471 39.319 377.278 39.511 377.086 39.655 376.942 39.751L381.454 39.752 381.454 39.752Z" fill="#040000"/><path d="M411.981 28.183C413.42 28.663 414.19 29.143 414.19 29.623 414.19 30.103 413.758 30.439 412.942 30.583 412.126 30.727 411.645 30.919 411.549 31.111 410.686 33.991 409.725 36.536 408.717 38.744 408.908 38.84 409.102 38.888 409.291 38.936 410.301 39.224 410.828 39.512 410.828 39.752 410.828 40.28 410.492 40.712 409.916 41.001 409.531 41.241 409.34 41.625 409.34 42.201L409.34 68.603C409.34 69.179 408.572 69.659 407.035 69.995 406.363 70.091 405.836 70.139 405.549 70.139 404.397 70.139 403.867 69.611 403.867 68.603 404.107 65.195 404.252 61.739 404.252 58.282L404.252 46.28C403.004 47.96 401.658 49.64 400.123 51.368L399.402 50.6C401.515 46.664 403.195 42.967 404.347 39.607 405.497 36.054 406.458 31.782 407.275 26.79 408.909 27.271 410.446 27.704 411.981 28.183ZM421.055 29.624 431.471 29.624C432.143 28.808 432.815 28.088 433.487 27.416 433.967 26.888 434.399 26.6 434.831 26.6 435.218 26.6 436.177 27.08 437.665 27.992 439.394 29.144 440.257 29.96 440.257 30.344 440.257 30.824 439.921 31.304 439.296 31.736 438.817 32.168 438.577 32.648 438.577 33.176L438.577 36.92C438.577 38.456 438.624 40.521 438.768 43.112 438.768 43.736 437.903 44.168 436.272 44.456 435.502 44.552 434.975 44.6 434.639 44.6 433.776 44.6 433.344 44.121 433.344 43.112L433.344 42.345 429.215 42.345 429.215 49.306 434.639 49.306C434.735 49.258 435.311 48.586 436.272 47.29 437.424 45.754 438.143 44.986 438.383 44.986 439.008 44.986 440.016 45.754 441.406 47.194 442.75 48.634 443.47 49.546 443.47 49.882 443.47 50.362 443.134 50.602 442.509 50.602L429.739 50.602C431.803 53.482 434.012 55.643 436.315 57.179 438.909 58.811 441.452 59.915 443.997 60.539L443.806 61.691C442.367 62.171 441.359 63.131 440.783 64.668 440.398 65.772 440.013 66.348 439.535 66.348 439.055 66.348 438.047 65.58 436.463 64.092 434.781 62.604 433.197 60.635 431.709 58.236 430.75 56.7 429.887 55.115 429.213 53.484L429.213 68.605C429.213 69.181 428.35 69.661 426.67 69.997 425.9 70.093 425.373 70.141 425.086 70.141 424.029 70.141 423.551 69.613 423.551 68.605 423.789 66.781 423.934 64.189 423.934 60.732L423.934 55.596C423.118 56.892 422.399 57.948 421.727 58.716 420.19 60.492 418.461 62.076 416.495 63.468 414.526 64.86 412.366 65.964 410.061 66.924L409.678 66.204C411.981 64.475 414.19 62.315 416.252 59.675 418.172 57.083 419.854 54.059 421.244 50.602L416.828 50.602C414.045 50.602 412.125 50.698 411.019 50.794L410.249 48.922C411.737 49.21 413.946 49.306 416.827 49.306L423.931 49.306 423.931 42.345 420.187 42.345 420.187 43.689C420.187 44.313 419.371 44.745 417.787 45.033 417.068 45.129 416.539 45.177 416.252 45.177 415.244 45.177 414.764 44.697 414.764 43.689 414.86 42.009 414.955 40.329 414.955 38.601L414.955 34.281C414.955 31.929 414.81 29.625 414.57 27.368 416.686 27.943 418.846 28.664 421.055 29.624ZM433.344 41.048 433.344 30.919 420.19 30.919 420.19 41.048 433.344 41.048Z" fill="#040000"/><path d="M453.932 34.279 458.637 34.279C458.733 34.279 459.116 33.799 459.836 32.887 460.748 31.831 461.275 31.303 461.469 31.303 461.901 31.303 462.621 31.831 463.678 32.887 464.686 33.991 465.213 34.663 465.213 34.855 465.213 35.383 464.924 35.623 464.445 35.623L453.931 35.623C451.195 35.623 449.275 35.719 448.12 35.815L447.401 33.943C448.893 34.183 451.053 34.279 453.932 34.279ZM455.805 29.431 456.379 29.431C456.477 29.383 456.908 28.855 457.774 27.847 458.782 26.695 459.358 26.071 459.549 26.071 460.028 26.071 460.846 26.696 461.901 27.847 462.958 28.999 463.534 29.719 463.534 30.007 463.534 30.487 463.247 30.727 462.766 30.727L455.805 30.727C453.069 30.727 451.149 30.823 449.996 30.919L449.275 29.047C450.764 29.335 452.924 29.431 455.805 29.431ZM455.805 40.28 456.573 40.28C456.669 40.28 457.102 39.752 457.966 38.744 458.976 37.544 459.552 36.92 459.741 36.92 460.221 36.92 461.038 37.544 462.095 38.696 463.152 39.896 463.679 40.616 463.679 40.856 463.679 41.384 463.439 41.624 462.958 41.624L455.806 41.624C453.072 41.624 451.15 41.72 449.997 41.816L449.276 39.944C450.764 40.184 452.924 40.28 455.805 40.28ZM455.997 46.666 456.573 46.666C456.669 46.666 457.1 46.138 457.964 45.13 458.974 43.93 459.55 43.306 459.741 43.306 460.221 43.306 461.036 43.93 462.095 45.082 463.15 46.282 463.679 47.002 463.679 47.242 463.679 47.77 463.439 48.01 462.958 48.01L455.997 48.01C453.261 48.01 451.341 48.106 450.188 48.202L449.467 46.282C450.956 46.568 453.116 46.666 455.997 46.666ZM455.372 53.625 455.806 53.625C456.478 52.857 457.15 52.137 457.726 51.561 458.205 51.081 458.638 50.793 459.023 50.793 459.359 50.793 460.222 51.225 461.662 52.089 463.248 53.193 464.062 53.961 464.062 54.345 464.062 54.825 463.775 55.257 463.199 55.641 462.767 56.025 462.574 56.505 462.574 56.985L462.574 61.497C462.574 62.841 462.623 64.617 462.767 66.921 462.767 67.497 461.997 67.977 460.511 68.265 459.837 68.361 459.31 68.409 459.023 68.409 458.111 68.409 457.679 67.977 457.679 67.113L457.679 65.817 454.7 65.817 454.7 68.217C454.7 68.841 453.981 69.321 452.54 69.609 451.868 69.705 451.436 69.753 451.147 69.753 450.092 69.753 449.612 69.225 449.612 68.217 449.708 66.729 449.803 65.289 449.803 63.753L449.803 57.944C449.803 55.736 449.658 53.624 449.467 51.559 451.389 52.089 453.356 52.761 455.372 53.625ZM457.678 64.474 457.678 54.921 454.7 54.921 454.7 64.474 457.678 64.474ZM470.829 56.793 480.768 56.793C481.344 56.217 481.823 55.785 482.112 55.593 482.88 54.921 483.505 54.537 483.936 54.537 484.319 54.537 485.28 55.209 486.768 56.457 488.254 57.801 489.024 58.665 489.024 59.049 489.024 59.481 488.448 59.769 487.391 59.865 486.334 59.961 485.711 60.153 485.471 60.345 484.512 61.593 483.215 62.697 481.582 63.705 484.078 64.281 487.344 64.761 491.473 65.049L491.28 66.009C490.128 66.297 489.36 67.065 488.975 68.217 488.688 69.081 488.448 69.561 488.254 69.561 487.008 69.561 485.277 69.225 483.117 68.553 480.621 67.833 478.558 67.065 477.021 66.249 476.013 66.681 474.957 67.065 473.9 67.449 470.925 68.505 466.748 69.417 461.468 70.137L461.083 69.177C465.019 68.169 468.954 66.633 472.845 64.616 473.181 64.424 473.468 64.28 473.755 64.088 473.083 63.512 472.46 62.888 471.98 62.216 470.923 60.968 470.06 59.576 469.484 58.135 467.755 58.183 466.365 58.231 465.213 58.279L464.445 56.407C466.655 56.697 468.815 56.793 470.829 56.793ZM473.663 26.695C475.392 26.887 476.255 27.175 476.255 27.559 476.255 28.087 475.823 28.519 475.056 28.807 474.48 29.047 474.191 29.431 474.191 30.007L474.191 34.135C474.191 34.663 473.472 35.047 472.031 35.287 471.84 35.335 471.744 35.335 471.648 35.335 472.703 35.959 473.279 36.439 473.279 36.727 473.279 37.159 472.943 37.399 472.32 37.447 471.552 37.447 471.119 37.591 471.023 37.879 470.832 38.119 470.687 38.311 470.591 38.503L471.165 38.791 475.247 38.791C475.487 38.071 475.679 37.399 475.823 36.727 475.966 35.959 476.11 35.047 476.255 33.943 477.312 34.231 478.366 34.519 479.327 34.759 479.423 34.183 479.472 33.703 479.472 33.367L479.472 29.815C479.472 28.375 479.281 27.127 478.896 26.07 480.193 26.214 481.777 26.406 483.601 26.695 485.33 26.887 486.193 27.175 486.193 27.559 486.193 28.087 485.759 28.519 484.992 28.807 484.418 29.047 484.129 29.431 484.129 30.007L484.129 31.111 484.514 31.111C484.514 31.111 484.946 30.727 485.713 29.863 486.723 28.711 487.395 28.135 487.682 28.135 487.971 28.135 488.881 28.807 490.418 30.151 491.33 30.967 491.811 31.495 491.811 31.687 491.811 32.167 491.571 32.407 491.09 32.407L484.129 32.407 484.129 34.663C484.129 35.239 483.408 35.623 481.971 35.863 481.873 35.863 481.825 35.911 481.778 35.911 481.827 36.007 481.874 36.103 481.874 36.199 481.874 36.583 481.538 36.775 480.915 36.871 480.243 37.015 479.907 37.159 479.811 37.303 479.331 37.831 478.752 38.263 478.129 38.647 477.984 38.743 477.889 38.791 477.84 38.791L483.026 38.791C483.026 38.791 483.458 38.359 484.227 37.495 485.186 36.247 485.858 35.623 486.194 35.623 486.483 35.623 487.442 36.343 489.075 37.735 490.036 38.599 490.514 39.175 490.514 39.367 490.514 39.895 490.227 40.135 489.746 40.135L480.576 40.135 480.576 43.303 481.681 43.303C481.728 43.303 482.113 42.919 482.831 42.151 483.792 41.047 484.415 40.471 484.704 40.471 484.991 40.471 485.854 41.143 487.296 42.391 488.159 43.159 488.64 43.687 488.64 43.879 488.64 44.359 488.353 44.599 487.872 44.599L480.575 44.599 480.575 47.815 481.87 47.815C481.919 47.815 482.304 47.431 483.022 46.615 483.983 45.559 484.606 44.983 484.895 44.983 485.182 44.983 486.045 45.655 487.487 46.903 488.35 47.671 488.831 48.151 488.831 48.343 488.831 48.871 488.544 49.111 488.063 49.111L480.575 49.111 480.575 52.856 483.743 52.856C483.792 52.856 484.175 52.424 484.942 51.56 485.952 50.312 486.624 49.688 486.96 49.688 487.247 49.688 488.208 50.408 489.792 51.8 490.751 52.664 491.28 53.24 491.28 53.432 491.28 53.96 490.991 54.2 490.51 54.2L471.022 54.2 471.022 54.536C471.022 55.112 470.252 55.496 468.813 55.736 468.19 55.832 467.756 55.88 467.469 55.88 466.412 55.88 465.932 55.448 465.932 54.536 466.172 52.52 466.317 50.455 466.317 48.343L466.317 43.015C465.405 43.687 464.348 44.359 463.149 44.983L462.764 44.215C463.916 42.727 464.924 41.094 465.836 39.27 466.893 37.206 467.611 35.238 467.996 33.366 468.476 33.654 468.955 33.942 469.389 34.134 469.485 33.558 469.534 33.126 469.534 32.79L469.534 32.406C467.421 32.406 465.694 32.502 464.446 32.598L463.676 30.726C465.309 31.014 467.229 31.11 469.531 31.11L469.531 29.814C469.531 28.374 469.342 27.126 468.955 26.069 470.252 26.214 471.838 26.407 473.663 26.695ZM474.766 61.163C475.246 61.547 475.823 61.883 476.59 62.171 478.125 60.971 479.52 59.627 480.768 58.139L470.782 58.139C472.077 59.434 473.422 60.442 474.766 61.163ZM475.87 40.136 471.022 40.136 471.022 43.304 475.87 43.304 475.87 40.136ZM475.87 44.6 471.022 44.6 471.022 47.816 475.87 47.816 475.87 44.6ZM475.87 49.112 471.022 49.112 471.022 52.857 475.87 52.857 475.87 49.112Z" fill="#040000"/><path d="M506.637 43.112 511.34 43.112 511.34 42.008C511.34 40.76 511.197 39.416 510.957 38.072 512.973 38.264 514.941 38.504 516.861 38.84 518.013 38.936 518.636 39.224 518.636 39.752 518.636 39.944 518.251 40.232 517.532 40.568 516.764 40.952 516.38 41.336 516.38 41.816L516.38 43.112 519.021 43.112C519.117 43.112 519.55 42.584 520.414 41.528 521.375 40.376 521.998 39.752 522.189 39.752 522.669 39.752 523.437 40.377 524.494 41.528 525.215 42.344 525.695 42.92 525.982 43.304 527.711 41.96 529.486 40.52 531.214 38.984 532.749 40.136 533.95 41.048 534.909 41.672 536.302 42.728 537.022 43.448 537.022 43.88 537.022 44.264 536.733 44.408 536.252 44.408L533.805 44.216C530.444 46.136 527.131 47.864 523.963 49.304L530.826 49.304C530.924 49.256 531.451 48.632 532.412 47.431 533.516 46.087 534.187 45.367 534.381 45.367 534.955 45.367 535.916 46.039 537.164 47.383 538.412 48.727 539.084 49.591 539.084 49.879 539.084 50.359 538.748 50.599 538.123 50.599L521.131 50.599C517.529 52.183 514.074 53.479 510.715 54.537L526.123 54.537C526.844 53.769 527.516 53.097 528.187 52.521 528.666 52.041 529.099 51.753 529.531 51.753 529.914 51.753 530.826 52.233 532.267 53.097 533.898 54.249 534.763 55.065 534.763 55.497 534.763 55.977 534.378 56.409 533.658 56.889 533.131 57.321 532.89 57.801 532.89 58.281L532.89 62.073C532.89 63.561 532.937 65.577 533.081 68.218 533.081 68.842 532.218 69.322 530.585 69.61 529.815 69.706 529.288 69.754 528.952 69.754 528.04 69.754 527.608 69.226 527.608 68.218L527.608 67.306 508.694 67.306 508.694 68.218C508.694 68.842 507.831 69.274 506.198 69.562 505.43 69.658 504.901 69.754 504.565 69.754 503.557 69.754 503.077 69.226 503.077 68.218L503.27 59.817 503.27 56.553C500.87 57.129 498.565 57.513 496.309 57.753L495.924 56.601C503.461 54.633 509.365 52.617 513.686 50.601L502.5 50.601C499.764 50.601 497.844 50.697 496.691 50.793L495.923 48.921C497.458 49.209 499.618 49.305 502.499 49.305L511.331 49.305 511.331 44.409 506.628 44.409C503.843 44.409 501.923 44.505 500.817 44.601L500.049 42.729C501.596 43.016 503.756 43.112 506.637 43.112ZM504.043 28.664 529.344 28.664C529.869 28.04 530.352 27.512 530.735 27.08 531.12 26.648 531.551 26.408 531.936 26.408 532.463 26.408 533.424 26.936 534.815 27.944 536.401 29 537.215 29.72 537.215 30.2 537.215 30.536 536.879 30.872 536.303 31.208 535.727 31.592 535.44 31.928 535.344 32.216L535.344 37.497C535.344 38.025 534.528 38.409 532.944 38.649 532.223 38.745 531.696 38.793 531.407 38.793 530.544 38.793 530.112 38.457 530.112 37.689L503.805 37.689 503.805 38.409C503.805 39.033 502.989 39.465 501.405 39.753 500.733 39.897 500.206 39.945 499.87 39.945 498.86 39.945 498.382 39.465 498.382 38.409 498.478 37.545 498.573 36.585 498.573 35.432L498.573 30.728C498.573 29.576 498.477 28.232 498.382 26.6 500.252 27.127 502.124 27.799 504.043 28.664ZM503.805 30.007 503.805 36.343 509.084 36.343 509.084 30.007 503.805 30.007ZM527.614 60.202 527.614 55.882 508.51 55.882 508.51 60.202 527.614 60.202ZM527.614 66.01 527.614 61.498 508.557 61.498 508.653 66.01 527.614 66.01ZM514.125 30.007 514.125 36.343 519.74 36.343 519.74 30.007 514.125 30.007ZM516.573 49.112C519.165 47.864 521.759 46.328 524.446 44.408L516.382 44.408 516.382 49.208C516.43 49.209 516.479 49.162 516.573 49.112ZM530.063 30.007 524.831 30.007 524.831 36.343 530.063 36.343 530.063 30.007Z" fill="#040000"/><g><path d="M163.76 95.581 163.76 80.92 174.361 80.92 174.361 82.649 165.699 82.649 165.699 87.139 173.81 87.139 173.81 88.86 165.699 88.86 165.699 93.85 174.699 93.85 174.699 95.579 163.76 95.579 163.76 95.581Z" fill="#040000"/><path d="M177.561 95.581 177.561 84.959 179.18 84.959 179.18 86.47C179.961 85.303 181.087 84.719 182.561 84.719 183.201 84.719 183.789 84.835 184.326 85.064 184.863 85.294 185.265 85.597 185.533 85.971 185.798 86.343 185.985 86.786 186.093 87.3 186.16 87.634 186.193 88.216 186.193 89.051L186.193 95.58 184.394 95.58 184.394 89.121C184.394 88.387 184.324 87.839 184.184 87.475 184.044 87.11 183.796 86.822 183.439 86.604 183.082 86.388 182.663 86.28 182.184 86.28 181.417 86.28 180.755 86.523 180.199 87.01 179.643 87.496 179.364 88.419 179.364 89.781L179.364 95.581 177.561 95.581 177.561 95.581Z" fill="#040000"/><path d="M192.312 95.581 188.271 84.96 190.172 84.96 192.453 91.322C192.699 92.009 192.927 92.721 193.133 93.461 193.293 92.901 193.516 92.227 193.802 91.441L196.162 84.96 198.013 84.96 193.992 95.581 192.312 95.581Z" fill="#040000"/><path d="M200.021 82.99 200.021 80.92 201.821 80.92 201.821 82.989 200.021 82.989ZM200.021 95.581 200.021 84.959 201.821 84.959 201.821 95.58 200.021 95.58Z" fill="#040000"/><path d="M204.952 95.581 204.952 84.959 206.571 84.959 206.571 86.57C206.985 85.816 207.366 85.32 207.717 85.08 208.068 84.839 208.452 84.721 208.872 84.721 209.478 84.721 210.095 84.913 210.722 85.3L210.102 86.972C209.662 86.71 209.222 86.58 208.782 86.58 208.388 86.58 208.036 86.698 207.722 86.934 207.409 87.172 207.185 87.5 207.053 87.919 206.852 88.561 206.753 89.26 206.753 90.021L206.753 95.581 204.952 95.581 204.952 95.581Z" fill="#040000"/><path d="M211.531 90.27C211.531 88.303 212.078 86.847 213.171 85.901 214.085 85.115 215.198 84.721 216.511 84.721 217.972 84.721 219.165 85.198 220.092 86.155 221.019 87.112 221.483 88.434 221.483 90.122 221.483 91.488 221.277 92.563 220.867 93.347 220.458 94.131 219.861 94.74 219.077 95.173 218.293 95.606 217.438 95.82 216.511 95.82 215.025 95.82 213.823 95.343 212.906 94.391 211.99 93.438 211.531 92.065 211.531 90.27ZM213.382 90.27C213.382 91.629 213.679 92.651 214.273 93.327 214.867 94.004 215.613 94.342 216.513 94.342 217.406 94.342 218.15 94.003 218.743 93.321 219.336 92.641 219.634 91.605 219.634 90.212 219.634 88.898 219.336 87.903 218.739 87.227 218.142 86.548 217.401 86.211 216.513 86.211 215.613 86.211 214.867 86.547 214.273 87.221 213.679 87.895 213.382 88.912 213.382 90.27Z" fill="#040000"/><path d="M224.002 95.581 224.002 84.959 225.622 84.959 225.622 86.47C226.402 85.303 227.529 84.719 229.002 84.719 229.642 84.719 230.23 84.835 230.767 85.064 231.304 85.294 231.705 85.597 231.973 85.971 232.24 86.343 232.427 86.786 232.534 87.3 232.6 87.634 232.634 88.216 232.634 89.051L232.634 95.58 230.834 95.58 230.834 89.121C230.834 88.387 230.763 87.839 230.623 87.475 230.484 87.11 230.236 86.822 229.879 86.604 229.522 86.388 229.104 86.28 228.624 86.28 227.856 86.28 227.196 86.523 226.639 87.01 226.082 87.496 225.804 88.419 225.804 89.781L225.804 95.581 224.002 95.581 224.002 95.581Z" fill="#040000"/><path d="M235.803 95.581 235.803 84.959 237.413 84.959 237.413 86.451C237.747 85.93 238.19 85.511 238.743 85.195 239.297 84.879 239.927 84.72 240.634 84.72 241.42 84.72 242.066 84.883 242.569 85.209 243.072 85.536 243.428 85.992 243.634 86.579 244.473 85.339 245.567 84.72 246.915 84.72 247.968 84.72 248.778 85.011 249.345 85.594 249.912 86.177 250.196 87.076 250.196 88.288L250.196 95.579 248.406 95.579 248.406 88.89C248.406 88.169 248.348 87.651 248.231 87.334 248.114 87.017 247.902 86.762 247.595 86.569 247.288 86.376 246.928 86.279 246.515 86.279 245.769 86.279 245.148 86.528 244.655 87.024 244.162 87.52 243.915 88.316 243.915 89.41L243.915 95.58 242.116 95.58 242.116 88.68C242.116 87.881 241.969 87.281 241.676 86.88 241.383 86.482 240.902 86.28 240.236 86.28 239.73 86.28 239.261 86.413 238.831 86.68 238.402 86.946 238.089 87.336 237.895 87.849 237.702 88.363 237.605 89.103 237.605 90.069L237.605 95.579 235.803 95.579 235.803 95.581Z" fill="#040000"/><path d="M260.545 92.161 262.406 92.391C262.112 93.478 261.57 94.321 260.775 94.921 259.98 95.522 258.967 95.82 257.734 95.82 256.18 95.82 254.949 95.341 254.038 94.386 253.129 93.429 252.673 92.087 252.673 90.361 252.673 88.575 253.133 87.186 254.054 86.201 254.973 85.213 256.167 84.721 257.634 84.721 259.055 84.721 260.215 85.204 261.114 86.171 262.015 87.138 262.465 88.496 262.465 90.25 262.465 90.356 262.462 90.518 262.455 90.731L254.534 90.731C254.601 91.898 254.93 92.79 255.524 93.412 256.118 94.03 256.858 94.341 257.744 94.341 258.404 94.341 258.967 94.168 259.434 93.82 259.901 93.475 260.272 92.921 260.545 92.161ZM254.635 89.252 260.565 89.252C260.485 88.357 260.259 87.688 259.885 87.24 259.311 86.546 258.567 86.201 257.655 86.201 256.829 86.201 256.134 86.476 255.571 87.03 255.006 87.584 254.695 88.325 254.635 89.252Z" fill="#040000"/><path d="M265.076 95.581 265.076 84.959 266.696 84.959 266.696 86.47C267.476 85.303 268.603 84.719 270.076 84.719 270.717 84.719 271.305 84.835 271.841 85.064 272.379 85.294 272.779 85.597 273.047 85.971 273.314 86.343 273.5 86.786 273.607 87.3 273.674 87.634 273.707 88.216 273.707 89.051L273.707 95.58 271.907 95.58 271.907 89.121C271.907 88.387 271.837 87.839 271.697 87.475 271.557 87.11 271.309 86.822 270.953 86.604 270.596 86.388 270.177 86.28 269.697 86.28 268.93 86.28 268.269 86.523 267.713 87.01 267.156 87.496 266.878 88.419 266.878 89.781L266.878 95.581 265.076 95.581 265.076 95.581Z" fill="#040000"/><path d="M280.806 93.971 281.065 95.56C280.56 95.666 280.105 95.722 279.706 95.722 279.053 95.722 278.546 95.618 278.185 95.41 277.826 95.205 277.573 94.931 277.425 94.595 277.279 94.259 277.206 93.55 277.206 92.469L277.206 86.36 275.887 86.36 275.887 84.96 277.206 84.96 277.206 82.332 278.996 81.251 278.996 84.96 280.807 84.96 280.807 86.36 278.996 86.36 278.996 92.572C278.996 93.086 279.027 93.415 279.091 93.561 279.154 93.707 279.258 93.825 279.401 93.912 279.544 93.999 279.749 94.042 280.016 94.042 280.216 94.042 280.48 94.016 280.806 93.971Z" fill="#040000"/><path d="M289.907 94.271C289.24 94.837 288.598 95.239 287.981 95.471 287.364 95.704 286.702 95.821 285.997 95.821 284.828 95.821 283.933 95.538 283.306 94.967 282.681 94.397 282.365 93.667 282.365 92.781 282.365 92.26 282.484 91.787 282.72 91.355 282.957 90.925 283.266 90.581 283.651 90.321 284.035 90.061 284.466 89.864 284.945 89.731 285.297 89.636 285.831 89.545 286.545 89.46 287.999 89.287 289.069 89.081 289.755 88.841 289.761 88.593 289.765 88.437 289.765 88.371 289.765 87.637 289.595 87.12 289.255 86.821 288.795 86.414 288.112 86.211 287.205 86.211 286.359 86.211 285.732 86.359 285.33 86.655 284.926 86.951 284.629 87.477 284.435 88.23L282.675 87.99C282.836 87.237 283.098 86.629 283.465 86.165 283.833 85.701 284.361 85.344 285.054 85.095 285.748 84.846 286.553 84.721 287.464 84.721 288.371 84.721 289.11 84.825 289.675 85.04 290.242 85.254 290.659 85.521 290.925 85.845 291.191 86.169 291.378 86.577 291.486 87.069 291.545 87.378 291.575 87.931 291.575 88.731L291.575 91.13C291.575 92.803 291.613 93.861 291.692 94.305 291.769 94.747 291.921 95.174 292.147 95.58L290.267 95.58C290.08 95.208 289.959 94.772 289.907 94.271ZM289.757 90.25C289.103 90.518 288.122 90.745 286.815 90.932 286.077 91.038 285.552 91.158 285.245 91.291 284.936 91.423 284.702 91.618 284.533 91.876 284.367 92.133 284.284 92.417 284.284 92.73 284.284 93.21 284.466 93.611 284.828 93.931 285.192 94.251 285.724 94.411 286.423 94.411 287.117 94.411 287.733 94.259 288.274 93.955 288.813 93.652 289.21 93.236 289.464 92.709 289.657 92.304 289.755 91.703 289.755 90.91L289.755 90.25 289.757 90.25Z" fill="#040000"/><path d="M294.734 95.581 294.734 80.92 296.535 80.92 296.535 95.58 294.734 95.58Z" fill="#040000"/><path d="M306.065 95.581 306.065 80.92 311.596 80.92C312.571 80.92 313.313 80.967 313.826 81.06 314.546 81.179 315.149 81.409 315.636 81.745 316.123 82.082 316.514 82.555 316.812 83.161 317.106 83.767 317.256 84.433 317.256 85.161 317.256 86.408 316.86 87.462 316.066 88.327 315.272 89.189 313.84 89.622 311.765 89.622L308.006 89.622 308.006 95.581 306.065 95.581ZM308.008 87.891 311.798 87.891C313.051 87.891 313.94 87.656 314.467 87.19 314.994 86.723 315.257 86.066 315.257 85.219 315.257 84.607 315.102 84.082 314.792 83.645 314.482 83.208 314.073 82.92 313.567 82.78 313.24 82.692 312.635 82.649 311.756 82.649L308.007 82.649 308.007 87.891 308.008 87.891Z" fill="#040000"/><path d="M319.887 95.581 319.887 84.959 321.507 84.959 321.507 86.57C321.921 85.816 322.302 85.32 322.651 85.08 323.004 84.839 323.387 84.721 323.807 84.721 324.413 84.721 325.03 84.913 325.657 85.3L325.039 86.972C324.6 86.71 324.159 86.58 323.719 86.58 323.325 86.58 322.971 86.698 322.657 86.934 322.345 87.172 322.122 87.5 321.988 87.919 321.787 88.561 321.688 89.26 321.688 90.021L321.688 95.581 319.887 95.581 319.887 95.581Z" fill="#040000"/><path d="M326.467 90.27C326.467 88.303 327.011 86.847 328.108 85.901 329.02 85.115 330.133 84.721 331.447 84.721 332.909 84.721 334.1 85.198 335.028 86.155 335.954 87.112 336.418 88.434 336.418 90.122 336.418 91.488 336.214 92.563 335.804 93.347 335.394 94.131 334.796 94.74 334.014 95.173 333.231 95.606 332.374 95.82 331.448 95.82 329.962 95.82 328.76 95.343 327.844 94.391 326.924 93.438 326.467 92.065 326.467 90.27ZM328.317 90.27C328.317 91.629 328.613 92.651 329.206 93.327 329.802 94.004 330.549 94.342 331.447 94.342 332.342 94.342 333.084 94.003 333.678 93.321 334.272 92.641 334.567 91.605 334.567 90.212 334.567 88.898 334.27 87.903 333.672 87.227 333.075 86.548 332.333 86.211 331.446 86.211 330.547 86.211 329.8 86.547 329.205 87.221 328.613 87.895 328.317 88.912 328.317 90.27Z" fill="#040000"/><path d="M342.869 93.971 343.129 95.56C342.622 95.666 342.168 95.722 341.769 95.722 341.116 95.722 340.609 95.618 340.248 95.41 339.889 95.205 339.635 94.931 339.487 94.595 339.341 94.259 339.267 93.55 339.267 92.469L339.267 86.36 337.948 86.36 337.948 84.96 339.267 84.96 339.267 82.332 341.057 81.251 341.057 84.96 342.869 84.96 342.869 86.36 341.057 86.36 341.057 92.572C341.057 93.086 341.089 93.415 341.153 93.561 341.216 93.707 341.319 93.825 341.463 93.912 341.607 93.999 341.813 94.042 342.077 94.042 342.278 94.042 342.542 94.016 342.869 93.971Z" fill="#040000"/><path d="M352.308 92.161 354.17 92.391C353.875 93.478 353.333 94.321 352.538 94.921 351.744 95.522 350.732 95.82 349.498 95.82 347.944 95.82 346.713 95.341 345.803 94.386 344.894 93.429 344.438 92.087 344.438 90.361 344.438 88.575 344.9 87.186 345.819 86.201 346.738 85.213 347.932 84.721 349.4 84.721 350.82 84.721 351.98 85.204 352.879 86.171 353.781 87.138 354.23 88.496 354.23 90.25 354.23 90.356 354.227 90.518 354.221 90.731L346.3 90.731C346.366 91.898 346.696 92.79 347.289 93.412 347.883 94.03 348.623 94.341 349.51 94.341 350.17 94.341 350.734 94.168 351.199 93.82 351.665 93.475 352.036 92.921 352.308 92.161ZM346.398 89.252 352.329 89.252C352.247 88.357 352.022 87.688 351.648 87.24 351.073 86.546 350.331 86.201 349.418 86.201 348.59 86.201 347.897 86.476 347.333 87.03 346.771 87.584 346.458 88.325 346.398 89.252Z" fill="#040000"/><path d="M363.77 91.692 365.54 91.921C365.345 93.142 364.852 94.096 364.056 94.787 363.258 95.477 362.28 95.821 361.119 95.821 359.664 95.821 358.497 95.348 357.614 94.397 356.729 93.446 356.289 92.085 356.289 90.311 356.289 89.165 356.478 88.162 356.859 87.3 357.239 86.442 357.817 85.795 358.592 85.365 359.369 84.933 360.215 84.719 361.129 84.719 362.282 84.719 363.227 85.012 363.959 85.594 364.692 86.177 365.164 87.005 365.37 88.079L363.619 88.349C363.452 87.635 363.155 87.1 362.735 86.74 362.31 86.381 361.797 86.199 361.197 86.199 360.292 86.199 359.554 86.524 358.988 87.175 358.422 87.826 358.137 88.856 358.137 90.261 358.137 91.69 358.413 92.726 358.958 93.372 359.505 94.017 360.217 94.341 361.098 94.341 361.806 94.341 362.394 94.125 362.868 93.694 363.342 93.258 363.642 92.591 363.77 91.692Z" fill="#040000"/><path d="M371.42 93.971 371.681 95.56C371.172 95.666 370.721 95.722 370.321 95.722 369.667 95.722 369.161 95.618 368.8 95.41 368.44 95.205 368.186 94.931 368.041 94.595 367.893 94.259 367.818 93.55 367.818 92.469L367.818 86.36 366.5 86.36 366.5 84.96 367.819 84.96 367.819 82.332 369.609 81.251 369.609 84.96 371.421 84.96 371.421 86.36 369.609 86.36 369.609 92.572C369.609 93.086 369.642 93.415 369.704 93.561 369.767 93.707 369.873 93.825 370.015 93.912 370.16 93.999 370.365 94.042 370.63 94.042 370.831 94.042 371.092 94.016 371.42 93.971Z" fill="#040000"/><path d="M373.6 82.99 373.6 80.92 375.4 80.92 375.4 82.989 373.6 82.989ZM373.6 95.581 373.6 84.959 375.4 84.959 375.4 95.58 373.6 95.58Z" fill="#040000"/><path d="M377.88 90.27C377.88 88.303 378.426 86.847 379.52 85.901 380.433 85.115 381.547 84.721 382.861 84.721 384.32 84.721 385.513 85.198 386.441 86.155 387.367 87.112 387.831 88.434 387.831 90.122 387.831 91.488 387.627 92.563 387.218 93.347 386.808 94.131 386.21 94.74 385.428 95.173 384.643 95.606 383.788 95.82 382.862 95.82 381.375 95.82 380.174 95.343 379.257 94.391 378.336 93.438 377.88 92.065 377.88 90.27ZM379.729 90.27C379.729 91.629 380.028 92.651 380.621 93.327 381.215 94.004 381.961 94.342 382.861 94.342 383.754 94.342 384.499 94.003 385.091 93.321 385.684 92.641 385.982 91.605 385.982 90.212 385.982 88.898 385.682 87.903 385.085 87.227 384.489 86.548 383.748 86.211 382.861 86.211 381.961 86.211 381.215 86.547 380.621 87.221 380.028 87.895 379.729 88.912 379.729 90.27Z" fill="#040000"/><path d="M390.348 95.581 390.348 84.959 391.97 84.959 391.97 86.47C392.747 85.303 393.875 84.719 395.349 84.719 395.989 84.719 396.577 84.835 397.114 85.064 397.651 85.294 398.052 85.597 398.319 85.971 398.585 86.343 398.772 86.786 398.88 87.3 398.946 87.634 398.981 88.216 398.981 89.051L398.981 95.58 397.179 95.58 397.179 89.121C397.179 88.387 397.111 87.839 396.972 87.475 396.832 87.112 396.581 86.822 396.224 86.604 395.87 86.388 395.453 86.28 394.972 86.28 394.205 86.28 393.543 86.523 392.987 87.01 392.43 87.496 392.151 88.419 392.151 89.781L392.151 95.581 390.348 95.581 390.348 95.581Z" fill="#040000"/><path d="M405.742 95.581 411.372 80.921 413.462 80.921 419.463 95.581 417.253 95.581 415.543 91.142 409.412 91.142 407.8 95.581 405.742 95.581ZM409.971 89.561 414.942 89.561 413.411 85.499C412.945 84.266 412.599 83.254 412.372 82.46 412.185 83.4 411.92 84.333 411.58 85.26L409.971 89.561Z" fill="#040000"/><path d="M428.082 95.581 428.082 94.243C427.409 95.296 426.42 95.82 425.112 95.82 424.266 95.82 423.487 95.587 422.777 95.121 422.068 94.656 421.517 94.004 421.126 93.167 420.736 92.331 420.543 91.368 420.543 90.281 420.543 89.221 420.717 88.259 421.072 87.396 421.426 86.534 421.955 85.871 422.663 85.411 423.369 84.95 424.159 84.722 425.032 84.722 425.672 84.722 426.241 84.856 426.744 85.127 427.241 85.397 427.649 85.748 427.963 86.183L427.963 80.92 429.753 80.92 429.753 95.58 428.082 95.58ZM422.391 90.281C422.391 91.641 422.677 92.658 423.251 93.332 423.826 94.005 424.501 94.342 425.279 94.342 426.069 94.342 426.736 94.022 427.287 93.377 427.835 92.733 428.111 91.751 428.111 90.432 428.111 88.977 427.832 87.911 427.271 87.232 426.71 86.551 426.021 86.211 425.201 86.211 424.401 86.211 423.733 86.537 423.196 87.19 422.661 87.843 422.391 88.874 422.391 90.281Z" fill="#040000"/><path d="M432.991 95.581 432.991 84.959 434.603 84.959 434.603 86.451C434.937 85.93 435.38 85.511 435.934 85.195 436.484 84.879 437.115 84.72 437.822 84.72 438.61 84.72 439.254 84.883 439.759 85.209 440.261 85.536 440.618 85.992 440.822 86.579 441.663 85.339 442.756 84.72 444.105 84.72 445.156 84.72 445.966 85.011 446.534 85.594 447.102 86.177 447.384 87.076 447.384 88.288L447.384 95.579 445.594 95.579 445.594 88.89C445.594 88.169 445.537 87.651 445.42 87.334 445.303 87.017 445.091 86.762 444.784 86.569 444.477 86.376 444.118 86.279 443.704 86.279 442.956 86.279 442.338 86.528 441.844 87.024 441.35 87.52 441.105 88.316 441.105 89.41L441.105 95.58 439.304 95.58 439.304 88.68C439.304 87.881 439.158 87.281 438.865 86.88 438.571 86.482 438.092 86.28 437.426 86.28 436.918 86.28 436.449 86.413 436.021 86.68 435.591 86.946 435.278 87.336 435.085 87.849 434.892 88.363 434.794 89.103 434.794 90.069L434.794 95.579 432.991 95.579 432.991 95.581Z" fill="#040000"/><path d="M450.472 82.99 450.472 80.92 452.272 80.92 452.272 82.989 450.472 82.989ZM450.472 95.581 450.472 84.959 452.272 84.959 452.272 95.58 450.472 95.58Z" fill="#040000"/><path d="M455.423 95.581 455.423 84.959 457.044 84.959 457.044 86.47C457.823 85.303 458.95 84.719 460.423 84.719 461.064 84.719 461.652 84.835 462.187 85.064 462.725 85.294 463.125 85.597 463.395 85.971 463.661 86.343 463.847 86.786 463.956 87.3 464.021 87.634 464.053 88.216 464.053 89.051L464.053 95.58 462.254 95.58 462.254 89.121C462.254 88.387 462.184 87.839 462.046 87.475 461.904 87.112 461.656 86.822 461.3 86.604 460.943 86.388 460.526 86.28 460.046 86.28 459.279 86.28 458.615 86.523 458.06 87.01 457.503 87.496 457.224 88.419 457.224 89.781L457.224 95.581 455.423 95.581 455.423 95.581Z" fill="#040000"/><path d="M467.234 82.99 467.234 80.92 469.034 80.92 469.034 82.989 467.234 82.989ZM467.234 95.581 467.234 84.959 469.034 84.959 469.034 95.58 467.234 95.58Z" fill="#040000"/><path d="M471.461 92.412 473.242 92.133C473.342 92.846 473.621 93.393 474.08 93.773 474.535 94.152 475.173 94.342 475.991 94.342 476.822 94.342 477.431 94.175 477.832 93.837 478.231 93.501 478.432 93.107 478.432 92.652 478.432 92.245 478.256 91.925 477.902 91.692 477.658 91.532 477.044 91.329 476.062 91.082 474.743 90.748 473.827 90.461 473.317 90.217 472.807 89.974 472.421 89.637 472.157 89.207 471.894 88.777 471.762 88.301 471.762 87.781 471.762 87.306 471.869 86.869 472.088 86.466 472.303 86.062 472.598 85.729 472.973 85.46 473.253 85.255 473.634 85.078 474.118 84.935 474.6 84.791 475.119 84.72 475.673 84.72 476.506 84.72 477.238 84.84 477.868 85.079 478.499 85.32 478.964 85.645 479.264 86.056 479.564 86.467 479.771 87.015 479.884 87.701L478.124 87.941C478.041 87.395 477.811 86.969 477.428 86.662 477.046 86.353 476.503 86.2 475.804 86.2 474.978 86.2 474.386 86.339 474.033 86.611 473.68 86.884 473.503 87.205 473.503 87.571 473.503 87.804 473.577 88.014 473.724 88.2 473.87 88.394 474.102 88.553 474.414 88.68 474.592 88.746 475.124 88.901 476.003 89.14 477.276 89.482 478.166 89.759 478.667 89.976 479.172 90.194 479.568 90.508 479.854 90.922 480.14 91.336 480.284 91.849 480.284 92.461 480.284 93.062 480.108 93.628 479.758 94.156 479.409 94.687 478.904 95.095 478.244 95.385 477.582 95.675 476.837 95.82 476.004 95.82 474.622 95.82 473.572 95.536 472.848 94.961 472.123 94.386 471.664 93.537 471.461 92.412Z" fill="#040000"/><path d="M486.765 93.971 487.024 95.56C486.518 95.666 486.065 95.722 485.665 95.722 485.013 95.722 484.504 95.618 484.144 95.41 483.785 95.205 483.531 94.931 483.382 94.595 483.237 94.259 483.165 93.55 483.165 92.469L483.165 86.36 481.845 86.36 481.845 84.96 483.165 84.96 483.165 82.332 484.954 81.251 484.954 84.96 486.765 84.96 486.765 86.36 484.954 86.36 484.954 92.572C484.954 93.086 484.985 93.415 485.048 93.561 485.111 93.707 485.216 93.825 485.361 93.912 485.503 93.999 485.709 94.042 485.974 94.042 486.175 94.042 486.439 94.016 486.765 93.971Z" fill="#040000"/><path d="M488.914 95.581 488.914 84.959 490.533 84.959 490.533 86.57C490.947 85.816 491.332 85.32 491.679 85.08 492.029 84.839 492.412 84.721 492.833 84.721 493.44 84.721 494.056 84.913 494.685 85.3L494.063 86.972C493.624 86.71 493.185 86.58 492.746 86.58 492.353 86.58 491.999 86.698 491.686 86.934 491.373 87.172 491.148 87.5 491.014 87.919 490.815 88.561 490.715 89.26 490.715 90.021L490.715 95.581 488.914 95.581 488.914 95.581Z" fill="#040000"/><path d="M503.095 94.271C502.43 94.837 501.785 95.239 501.17 95.471 500.554 95.704 499.89 95.821 499.183 95.821 498.017 95.821 497.123 95.538 496.495 94.967 495.869 94.397 495.555 93.667 495.555 92.781 495.555 92.26 495.674 91.787 495.909 91.355 496.146 90.925 496.455 90.581 496.84 90.321 497.222 90.061 497.653 89.864 498.134 89.731 498.487 89.636 499.022 89.545 499.735 89.46 501.188 89.287 502.259 89.081 502.945 88.841 502.952 88.593 502.956 88.437 502.956 88.371 502.956 87.637 502.786 87.12 502.445 86.821 501.985 86.414 501.302 86.211 500.395 86.211 499.548 86.211 498.923 86.359 498.52 86.655 498.117 86.951 497.818 87.477 497.624 88.23L495.864 87.99C496.024 87.237 496.286 86.629 496.653 86.165 497.021 85.701 497.55 85.344 498.243 85.095 498.937 84.846 499.74 84.721 500.654 84.721 501.562 84.721 502.298 84.825 502.864 85.04 503.432 85.254 503.847 85.521 504.115 85.845 504.381 86.168 504.567 86.577 504.676 87.069 504.735 87.378 504.765 87.931 504.765 88.731L504.765 91.13C504.765 92.803 504.805 93.861 504.881 94.305 504.957 94.747 505.11 95.174 505.335 95.58L503.454 95.58C503.267 95.208 503.149 94.772 503.095 94.271ZM502.946 90.25C502.292 90.518 501.313 90.745 500.004 90.932 499.264 91.038 498.741 91.158 498.435 91.291 498.127 91.423 497.891 91.618 497.724 91.876 497.559 92.133 497.475 92.417 497.475 92.73 497.475 93.21 497.656 93.611 498.019 93.931 498.383 94.251 498.915 94.411 499.615 94.411 500.309 94.411 500.924 94.259 501.465 93.955 502.005 93.652 502.403 93.236 502.655 92.709 502.848 92.304 502.945 91.703 502.945 90.91L502.945 90.25 502.946 90.25Z" fill="#040000"/><path d="M511.896 93.971 512.155 95.56C511.649 95.666 511.196 95.722 510.796 95.722 510.144 95.722 509.635 95.618 509.275 95.41 508.916 95.205 508.664 94.931 508.515 94.595 508.369 94.259 508.296 93.55 508.296 92.469L508.296 86.36 506.976 86.36 506.976 84.96 508.296 84.96 508.296 82.332 510.085 81.251 510.085 84.96 511.896 84.96 511.896 86.36 510.085 86.36 510.085 92.572C510.085 93.086 510.117 93.415 510.182 93.561 510.242 93.707 510.347 93.825 510.492 93.912 510.634 93.999 510.84 94.042 511.106 94.042 511.306 94.042 511.569 94.016 511.896 93.971Z" fill="#040000"/><path d="M514.075 82.99 514.075 80.92 515.875 80.92 515.875 82.989 514.075 82.989ZM514.075 95.581 514.075 84.959 515.875 84.959 515.875 95.58 514.075 95.58Z" fill="#040000"/><path d="M518.356 90.27C518.356 88.303 518.903 86.847 519.996 85.901 520.909 85.115 522.022 84.721 523.336 84.721 524.797 84.721 525.989 85.198 526.917 86.155 527.845 87.112 528.307 88.434 528.307 90.122 528.307 91.488 528.103 92.563 527.692 93.347 527.284 94.131 526.687 94.74 525.902 95.173 525.119 95.606 524.263 95.82 523.337 95.82 521.85 95.82 520.649 95.343 519.732 94.391 518.811 93.438 518.356 92.065 518.356 90.27ZM520.207 90.27C520.207 91.629 520.503 92.651 521.096 93.327 521.689 94.004 522.437 94.342 523.336 94.342 524.231 94.342 524.973 94.003 525.567 93.321 526.16 92.641 526.457 91.605 526.457 90.212 526.457 88.898 526.158 87.903 525.562 87.227 524.964 86.548 524.222 86.211 523.335 86.211 522.436 86.211 521.688 86.547 521.095 87.221 520.502 87.895 520.207 88.912 520.207 90.27Z" fill="#040000"/><path d="M530.827 95.581 530.827 84.959 532.448 84.959 532.448 86.47C533.227 85.303 534.354 84.719 535.827 84.719 536.468 84.719 537.056 84.835 537.591 85.064 538.129 85.294 538.529 85.597 538.798 85.971 539.065 86.343 539.251 86.786 539.358 87.3 539.425 87.634 539.459 88.216 539.459 89.051L539.459 95.58 537.657 95.58 537.657 89.121C537.657 88.387 537.588 87.839 537.45 87.475 537.308 87.112 537.059 86.822 536.703 86.604 536.347 86.388 535.93 86.28 535.449 86.28 534.682 86.28 534.019 86.523 533.464 87.01 532.907 87.496 532.627 88.419 532.627 89.781L532.627 95.581 530.827 95.581 530.827 95.581Z" fill="#040000"/><path d="M163.76 120.161 163.76 105.499 174.361 105.499 174.361 107.228 165.699 107.228 165.699 111.719 173.81 111.719 173.81 113.44 165.699 113.44 165.699 118.43 174.699 118.43 174.699 120.16 163.76 120.16Z" fill="#040000"/><path d="M176.361 120.161 180.241 114.64 176.65 109.538 178.9 109.538 180.53 112.029C180.837 112.501 181.084 112.899 181.27 113.217 181.564 112.778 181.834 112.388 182.081 112.05L183.871 109.537 186.022 109.537 182.351 114.538 186.301 120.159 184.091 120.159 181.911 116.859 181.331 115.969 178.541 120.158 176.361 120.158 176.361 120.161Z" fill="#040000"/><path d="M195.482 116.739 197.342 116.97C197.049 118.055 196.506 118.899 195.712 119.499 194.918 120.099 193.905 120.399 192.672 120.399 191.117 120.399 189.887 119.921 188.976 118.965 188.067 118.007 187.611 116.665 187.611 114.94 187.611 113.152 188.071 111.767 188.991 110.778 189.911 109.794 191.105 109.299 192.572 109.299 193.992 109.299 195.152 109.783 196.052 110.75 196.952 111.717 197.402 113.076 197.402 114.829 197.402 114.935 197.399 115.097 197.392 115.309L189.471 115.309C189.538 116.477 189.868 117.369 190.462 117.991 191.055 118.611 191.796 118.92 192.682 118.92 193.342 118.92 193.906 118.747 194.372 118.4 194.838 118.052 195.209 117.5 195.482 116.739ZM189.572 113.829 195.503 113.829C195.422 112.935 195.196 112.266 194.822 111.818 194.249 111.125 193.505 110.778 192.593 110.778 191.766 110.778 191.071 111.055 190.508 111.608 189.943 112.164 189.631 112.902 189.572 113.829Z" fill="#040000"/><path d="M206.941 116.268 208.712 116.499C208.519 117.72 208.023 118.674 207.228 119.365 206.431 120.053 205.452 120.399 204.292 120.399 202.839 120.399 201.67 119.924 200.787 118.973 199.904 118.023 199.461 116.66 199.461 114.888 199.461 113.74 199.651 112.737 200.031 111.877 200.411 111.015 200.989 110.372 201.767 109.941 202.543 109.511 203.389 109.295 204.302 109.295 205.455 109.295 206.398 109.588 207.132 110.17 207.866 110.754 208.336 111.582 208.541 112.656L206.792 112.926C206.625 112.212 206.33 111.677 205.906 111.317 205.482 110.957 204.972 110.776 204.371 110.776 203.465 110.776 202.727 111.101 202.161 111.752 201.595 112.403 201.311 113.43 201.311 114.838 201.311 116.265 201.584 117.302 202.131 117.947 202.677 118.593 203.391 118.918 204.271 118.918 204.978 118.918 205.568 118.7 206.042 118.269 206.516 117.836 206.815 117.169 206.941 116.268Z" fill="#040000"/><path d="M217.623 120.161 217.623 118.6C216.797 119.8 215.673 120.4 214.252 120.4 213.625 120.4 213.041 120.281 212.498 120.041 211.954 119.801 211.551 119.498 211.287 119.135 211.025 118.772 210.839 118.326 210.732 117.801 210.658 117.447 210.622 116.886 210.622 116.12L210.622 109.537 212.421 109.537 212.421 115.429C212.421 116.369 212.458 117.003 212.532 117.33 212.645 117.803 212.886 118.173 213.253 118.443 213.62 118.714 214.073 118.849 214.613 118.849 215.152 118.849 215.659 118.709 216.133 118.433 216.606 118.157 216.942 117.781 217.138 117.302 217.334 116.825 217.432 116.134 217.432 115.228L217.432 109.537 219.231 109.537 219.231 120.159 217.622 120.159 217.622 120.161Z" fill="#040000"/><path d="M226.393 118.549 226.653 120.14C226.146 120.245 225.694 120.299 225.293 120.299 224.639 120.299 224.133 120.196 223.772 119.989 223.412 119.782 223.159 119.51 223.012 119.174 222.865 118.838 222.791 118.128 222.791 117.049L222.791 110.939 221.472 110.939 221.472 109.539 222.791 109.539 222.791 106.909 224.582 105.829 224.582 109.539 226.392 109.539 226.392 110.939 224.582 110.939 224.582 117.15C224.582 117.662 224.614 117.994 224.677 118.138 224.74 118.284 224.844 118.404 224.987 118.49 225.13 118.575 225.336 118.619 225.602 118.619 225.803 118.619 226.066 118.596 226.393 118.549Z" fill="#040000"/><path d="M228.573 107.569 228.573 105.499 230.372 105.499 230.372 107.569 228.573 107.569ZM228.573 120.161 228.573 109.539 230.372 109.539 230.372 120.161 228.573 120.161Z" fill="#040000"/><path d="M236.474 120.161 232.434 109.539 234.334 109.539 236.615 115.898C236.861 116.586 237.088 117.299 237.295 118.041 237.456 117.48 237.679 116.806 237.965 116.02L240.324 109.54 242.176 109.54 238.155 120.162 236.474 120.162Z" fill="#040000"/><path d="M251.444 116.739 253.304 116.97C253.01 118.055 252.468 118.899 251.673 119.499 250.879 120.099 249.866 120.399 248.633 120.399 247.079 120.399 245.848 119.921 244.937 118.965 244.028 118.007 243.572 116.665 243.572 114.94 243.572 113.152 244.032 111.767 244.953 110.778 245.872 109.794 247.067 109.299 248.534 109.299 249.954 109.299 251.114 109.783 252.014 110.75 252.914 111.717 253.364 113.076 253.364 114.829 253.364 114.935 253.361 115.097 253.355 115.309L245.434 115.309C245.5 116.477 245.83 117.369 246.425 117.991 247.018 118.611 247.758 118.92 248.645 118.92 249.305 118.92 249.869 118.747 250.335 118.4 250.8 118.052 251.171 117.5 251.444 116.739ZM245.534 113.829 251.465 113.829C251.385 112.935 251.158 112.266 250.784 111.818 250.211 111.125 249.467 110.778 248.554 110.778 247.728 110.778 247.033 111.055 246.47 111.608 245.905 112.164 245.593 112.902 245.534 113.829Z" fill="#040000"/><path d="M266.065 120.161 266.065 113.949 260.415 105.499 262.774 105.499 265.665 109.92C266.199 110.746 266.696 111.573 267.155 112.4 267.594 111.632 268.128 110.769 268.755 109.81L271.595 105.498 273.855 105.498 268.004 113.948 268.004 120.16 266.065 120.16Z" fill="#040000"/><path d="M281.605 120.161 281.605 118.6C280.777 119.8 279.654 120.4 278.235 120.4 277.608 120.4 277.023 120.281 276.479 120.041 275.937 119.801 275.533 119.498 275.269 119.135 275.007 118.772 274.821 118.326 274.714 117.801 274.64 117.447 274.604 116.886 274.604 116.12L274.604 109.537 276.403 109.537 276.403 115.429C276.403 116.369 276.44 117.003 276.514 117.33 276.627 117.803 276.867 118.173 277.234 118.443 277.6 118.714 278.053 118.849 278.594 118.849 279.133 118.849 279.64 118.709 280.114 118.433 280.586 118.157 280.922 117.781 281.119 117.302 281.316 116.825 281.413 116.134 281.413 115.228L281.413 109.537 283.213 109.537 283.213 120.159 281.604 120.159 281.604 120.161Z" fill="#040000"/><path d="M293.375 118.849C292.709 119.415 292.067 119.816 291.449 120.049 290.834 120.284 290.171 120.4 289.465 120.4 288.298 120.4 287.401 120.116 286.775 119.545 286.15 118.975 285.835 118.247 285.835 117.36 285.835 116.84 285.954 116.366 286.19 115.934 286.427 115.504 286.736 115.16 287.12 114.899 287.504 114.64 287.934 114.444 288.414 114.309 288.767 114.216 289.301 114.126 290.014 114.04 291.468 113.865 292.537 113.658 293.224 113.418 293.23 113.173 293.234 113.015 293.234 112.949 293.234 112.216 293.064 111.699 292.723 111.4 292.265 110.992 291.58 110.789 290.675 110.789 289.828 110.789 289.202 110.937 288.8 111.233 288.396 111.531 288.098 112.054 287.904 112.808L286.144 112.568C286.304 111.814 286.567 111.208 286.934 110.744 287.301 110.28 287.831 109.924 288.524 109.675 289.217 109.424 290.021 109.298 290.934 109.298 291.84 109.298 292.578 109.405 293.144 109.618 293.71 109.832 294.126 110.099 294.393 110.423 294.659 110.747 294.847 111.156 294.954 111.648 295.014 111.957 295.044 112.509 295.044 113.309L295.044 115.709C295.044 117.381 295.082 118.439 295.159 118.883 295.236 119.327 295.388 119.752 295.615 120.159L293.734 120.159C293.549 119.787 293.431 119.349 293.375 118.849ZM293.226 114.83C292.573 115.097 291.591 115.324 290.284 115.511 289.546 115.616 289.021 115.737 288.715 115.87 288.407 116.003 288.171 116.198 288.004 116.454 287.837 116.711 287.755 116.996 287.755 117.308 287.755 117.788 287.936 118.19 288.299 118.51 288.662 118.829 289.195 118.989 289.894 118.989 290.588 118.989 291.205 118.839 291.746 118.533 292.285 118.232 292.681 117.814 292.935 117.289 293.129 116.884 293.226 116.283 293.226 115.49L293.226 114.83 293.226 114.83Z" fill="#040000"/><path d="M298.247 120.161 298.247 109.539 299.866 109.539 299.866 111.049C300.646 109.883 301.774 109.299 303.247 109.299 303.887 109.299 304.475 109.414 305.012 109.645 305.549 109.876 305.95 110.175 306.218 110.55 306.486 110.924 306.67 111.366 306.778 111.88 306.843 112.213 306.878 112.797 306.878 113.63L306.878 120.161 305.078 120.161 305.078 113.699C305.078 112.967 305.009 112.417 304.867 112.053 304.728 111.69 304.478 111.402 304.123 111.183 303.767 110.966 303.348 110.858 302.867 110.858 302.101 110.858 301.439 111.101 300.883 111.587 300.326 112.075 300.049 112.998 300.049 114.358L300.049 120.159 298.247 120.161 298.247 120.161Z" fill="#040000"/><path d="M310.516 120.161 310.516 118.11 312.567 118.11 312.567 120.161C312.567 120.914 312.434 121.522 312.169 121.985 311.9 122.449 311.478 122.807 310.897 123.059L310.396 122.29C310.778 122.123 311.058 121.878 311.237 121.555 311.417 121.232 311.517 120.767 311.538 120.16L310.516 120.16 310.516 120.161Z" fill="#040000"/><path d="M322.506 120.161 322.506 105.499 329.007 105.499C330.313 105.499 331.309 105.631 331.988 105.894 332.668 106.159 333.211 106.622 333.618 107.29 334.025 107.956 334.228 108.692 334.228 109.498 334.228 110.538 333.89 111.415 333.217 112.13 332.544 112.843 331.504 113.297 330.097 113.489 330.61 113.735 331.001 113.978 331.267 114.218 331.833 114.738 332.369 115.389 332.876 116.168L335.428 120.158 332.988 120.158 331.047 117.106C330.481 116.227 330.014 115.554 329.647 115.087 329.281 114.619 328.952 114.292 328.663 114.106 328.373 113.92 328.079 113.79 327.779 113.716 327.559 113.668 327.198 113.645 326.698 113.645L324.448 113.645 324.448 120.157 322.507 120.157 322.507 120.161ZM324.448 111.968 328.618 111.968C329.506 111.968 330.197 111.876 330.699 111.693 331.2 111.51 331.578 111.215 331.838 110.813 332.099 110.41 332.229 109.971 332.229 109.497 332.229 108.805 331.977 108.233 331.472 107.788 330.968 107.341 330.174 107.118 329.087 107.118L324.446 107.118 324.446 111.969 324.448 111.969Z" fill="#040000"/><path d="M337.958 120.161 337.958 118.11 340.009 118.11 340.009 120.161 337.958 120.161Z" fill="#040000"/><path d="M343.188 113.019C343.188 110.585 343.84 108.681 345.148 107.304 346.454 105.925 348.141 105.239 350.21 105.239 351.563 105.239 352.783 105.563 353.869 106.209 354.956 106.855 355.784 107.757 356.354 108.915 356.924 110.071 357.209 111.383 357.209 112.849 357.209 114.336 356.907 115.667 356.308 116.841 355.708 118.013 354.859 118.901 353.76 119.505 352.658 120.109 351.472 120.41 350.198 120.41 348.817 120.41 347.583 120.077 346.497 119.41 345.411 118.743 344.587 117.833 344.027 116.68 343.467 115.525 343.188 114.305 343.188 113.019ZM345.188 113.047C345.188 114.815 345.663 116.207 346.613 117.223 347.564 118.243 348.756 118.748 350.189 118.748 351.65 118.748 352.851 118.235 353.793 117.209 354.738 116.182 355.209 114.725 355.209 112.839 355.209 111.645 355.007 110.605 354.605 109.714 354.201 108.824 353.612 108.133 352.834 107.644 352.06 107.155 351.187 106.909 350.219 106.909 348.846 106.909 347.664 107.381 346.674 108.326 345.682 109.267 345.188 110.843 345.188 113.047Z" fill="#040000"/><path d="M360.4 120.161 360.4 118.11 362.451 118.11 362.451 120.161 360.4 120.161Z" fill="#040000"/><path d="M376.68 115.019 378.621 115.51C378.213 117.103 377.482 118.319 376.425 119.155 375.367 119.992 374.076 120.41 372.55 120.41 370.969 120.41 369.684 120.089 368.694 119.445 367.705 118.802 366.952 117.87 366.434 116.649 365.917 115.43 365.658 114.12 365.658 112.719 365.658 111.192 365.951 109.861 366.532 108.724 367.117 107.587 367.947 106.724 369.024 106.133 370.1 105.543 371.287 105.247 372.578 105.247 374.048 105.247 375.28 105.62 376.279 106.369 377.28 107.115 377.975 108.165 378.371 109.518L376.461 109.968C376.121 108.901 375.626 108.124 374.98 107.638 374.334 107.152 373.52 106.909 372.541 106.909 371.415 106.909 370.473 107.179 369.717 107.719 368.959 108.257 368.427 108.985 368.122 109.894 367.814 110.804 367.66 111.743 367.66 112.709 367.66 113.956 367.844 115.045 368.205 115.974 368.569 116.905 369.134 117.6 369.899 118.059 370.666 118.522 371.496 118.749 372.389 118.749 373.477 118.749 374.396 118.436 375.15 117.808 375.904 117.183 376.412 116.252 376.68 115.019Z" fill="#040000"/><path d="M381.701 120.161 381.701 118.11 383.75 118.11 383.75 120.161 381.701 120.161Z" fill="#040000"/><path d="M390.73 124.469C389.737 123.216 388.897 121.748 388.21 120.07 387.522 118.39 387.18 116.649 387.18 114.849 387.18 113.262 387.436 111.743 387.951 110.288 388.552 108.602 389.476 106.922 390.73 105.247L392.02 105.247C391.212 106.636 390.678 107.624 390.419 108.219 390.013 109.138 389.693 110.099 389.458 111.098 389.173 112.345 389.031 113.6 389.031 114.86 389.031 118.066 390.027 121.27 392.019 124.47L390.73 124.469 390.73 124.469Z" fill="#040000"/><path d="M398.48 120.161 398.48 107.228 393.649 107.228 393.649 105.5 405.269 105.5 405.269 107.229 400.421 107.229 400.421 120.162 398.48 120.162Z" fill="#040000"/><path d="M412.099 118.849C411.434 119.415 410.792 119.816 410.174 120.049 409.561 120.284 408.896 120.4 408.19 120.4 407.023 120.4 406.127 120.116 405.5 119.545 404.875 118.975 404.561 118.247 404.561 117.36 404.561 116.84 404.679 116.366 404.915 115.934 405.151 115.504 405.462 115.16 405.847 114.899 406.229 114.64 406.66 114.444 407.14 114.309 407.494 114.216 408.027 114.126 408.741 114.04 410.195 113.865 411.264 113.658 411.951 113.418 411.959 113.173 411.963 113.015 411.963 112.949 411.963 112.216 411.792 111.699 411.45 111.4 410.992 110.992 410.307 110.789 409.402 110.789 408.554 110.789 407.931 110.937 407.526 111.233 407.123 111.531 406.824 112.054 406.631 112.808L404.87 112.568C405.029 111.814 405.294 111.208 405.66 110.744 406.026 110.28 406.557 109.924 407.249 109.675 407.943 109.424 408.747 109.298 409.66 109.298 410.568 109.298 411.304 109.405 411.871 109.618 412.438 109.832 412.853 110.099 413.121 110.423 413.387 110.747 413.574 111.156 413.682 111.648 413.74 111.957 413.771 112.509 413.771 113.309L413.771 115.709C413.771 117.381 413.811 118.439 413.886 118.883 413.964 119.327 414.115 119.752 414.341 120.159L412.461 120.159C412.275 119.787 412.156 119.349 412.099 118.849ZM411.95 114.83C411.299 115.097 410.317 115.324 409.01 115.511 408.271 115.616 407.747 115.737 407.442 115.87 407.133 116.003 406.897 116.198 406.729 116.454 406.565 116.711 406.481 116.996 406.481 117.308 406.481 117.788 406.662 118.19 407.026 118.51 407.389 118.829 407.921 118.989 408.621 118.989 409.314 118.989 409.931 118.839 410.472 118.533 411.011 118.232 411.409 117.814 411.661 117.289 411.854 116.884 411.951 116.283 411.951 115.49L411.951 114.83 411.95 114.83Z" fill="#040000"/><path d="M416.982 107.569 416.982 105.499 418.78 105.499 418.78 107.569 416.982 107.569ZM416.982 120.161 416.982 109.539 418.78 109.539 418.78 120.161 416.982 120.161Z" fill="#040000"/><path d="M423.892 120.161 420.641 109.539 422.503 109.539 424.191 115.671 424.822 117.951C424.848 117.837 425.032 117.106 425.372 115.761L427.062 109.539 428.911 109.539 430.501 115.7 431.033 117.731 431.642 115.68 433.462 109.538 435.212 109.538 431.892 120.16 430.021 120.16 428.332 113.8 427.922 111.989 425.772 120.16 423.892 120.16 423.892 120.161Z" fill="#040000"/><path d="M444.064 118.849C443.396 119.415 442.753 119.816 442.139 120.049 441.522 120.284 440.86 120.4 440.153 120.4 438.986 120.4 438.09 120.116 437.465 119.545 436.836 118.975 436.523 118.247 436.523 117.36 436.523 116.84 436.642 116.366 436.877 115.934 437.113 115.504 437.425 115.16 437.808 114.899 438.192 114.64 438.622 114.444 439.103 114.309 439.456 114.216 439.99 114.126 440.704 114.04 442.156 113.865 443.227 113.658 443.914 113.418 443.92 113.173 443.924 113.015 443.924 112.949 443.924 112.216 443.755 111.699 443.413 111.4 442.955 110.992 442.271 110.789 441.363 110.789 440.515 110.789 439.891 110.937 439.488 111.233 439.086 111.531 438.789 112.054 438.593 112.808L436.833 112.568C436.992 111.814 437.255 111.208 437.623 110.744 437.989 110.28 438.518 109.924 439.212 109.675 439.905 109.424 440.71 109.298 441.623 109.298 442.53 109.298 443.267 109.405 443.833 109.618 444.398 109.832 444.816 110.099 445.082 110.423 445.351 110.747 445.537 111.156 445.642 111.648 445.704 111.957 445.734 112.509 445.734 113.309L445.734 115.709C445.734 117.381 445.771 118.439 445.848 118.883 445.925 119.327 446.076 119.752 446.304 120.159L444.424 120.159C444.235 119.787 444.115 119.349 444.064 118.849ZM443.915 114.83C443.261 115.097 442.28 115.324 440.973 115.511 440.234 115.616 439.709 115.737 439.402 115.87 439.097 116.003 438.859 116.198 438.693 116.454 438.527 116.711 438.443 116.996 438.443 117.308 438.443 117.788 438.625 118.19 438.989 118.51 439.352 118.829 439.883 118.989 440.583 118.989 441.276 118.989 441.894 118.839 442.435 118.533 442.974 118.232 443.371 117.814 443.624 117.289 443.818 116.884 443.914 116.283 443.914 115.49L443.914 114.83 443.915 114.83Z" fill="#040000"/><path d="M448.933 120.161 448.933 109.539 450.554 109.539 450.554 111.049C451.333 109.883 452.46 109.299 453.933 109.299 454.573 109.299 455.162 109.414 455.697 109.645 456.236 109.875 456.637 110.175 456.904 110.55 457.172 110.924 457.358 111.366 457.464 111.88 457.532 112.213 457.566 112.797 457.566 113.63L457.566 120.161 455.765 120.161 455.765 113.699C455.765 112.967 455.694 112.417 455.555 112.053 455.413 111.69 455.167 111.402 454.811 111.183 454.454 110.966 454.035 110.858 453.555 110.858 452.788 110.858 452.126 111.101 451.571 111.587 451.013 112.075 450.734 112.998 450.734 114.358L450.734 120.159 448.933 120.161 448.933 120.161Z" fill="#040000"/><path d="M461.915 124.469 460.625 124.469C462.618 121.269 463.615 118.066 463.615 114.859 463.615 113.605 463.47 112.362 463.184 111.128 462.958 110.129 462.641 109.168 462.235 108.249 461.974 107.65 461.438 106.649 460.625 105.248L461.915 105.248C463.169 106.923 464.093 108.603 464.694 110.289 465.209 111.743 465.463 113.263 465.463 114.85 465.463 116.65 465.118 118.391 464.43 120.071 463.74 121.749 462.899 123.216 461.915 124.469Z" fill="#040000"/></g></g></svg>